<svg xmlns="http://www.w3.org/2000/svg" width="800" height="571.289" viewBox="0 0 800 571.289">
  <g transform="translate(-504 -245.5)">
    <path fill="#f8a8ab" d="m1239.56 756.506 13.332-15.344 21.77 18.916-13.332 15.344z"/>
    <path fill="#2f2e41" d="M1275.265 784.561c2.514-2.418 14.964-14.64 12.526-17.916a17.1 17.1 0 0 0-6.399-4.843c-13.65-9.653-14.197-9.306-14.525-9.09-.52.332-1.031 2.177-1.509 5.479l-.027.208.125.16c.166.21 3.959 5.152-.617 8.98-3.13 2.629-6.192 3.408-7.177 2.937a32.5 32.5 0 0 1-4.982-3.334l-6.157 25.498-6.284 13.441a3.68 3.68 0 0 0 .03 3.177 3.68 3.68 0 0 0 3.746 2.021c3.457-.427 9.843-1.692 13.763-5.448 1.045-.994 2.33-2.399 3.73-4.01 5.851-6.731 13.7-17.166 13.75-17.252Z"/>
    <path fill="#f8a8ab" d="M1195.237 770.494h20.323v28.835h-20.323z"/>
    <path fill="#2f2e41" d="M1197.489 815.847c3.475.311 20.867 1.689 21.74-2.3a17.1 17.1 0 0 0-.543-8.007c-1.669-16.635-2.291-16.82-2.669-16.926-.592-.175-2.32.65-5.125 2.456l-.175.116-.039.2c-.049.262-1.291 6.367-7.182 5.425-4.038-.641-6.634-2.446-6.926-3.494a32.5 32.5 0 0 1-.752-5.947l-23.283 12.081-14.267 4.076a3.68 3.68 0 0 0-2.378 2.106 3.68 3.68 0 0 0 .932 4.154c2.591 2.329 7.735 6.318 13.141 6.813 1.436.136 3.339.185 5.474.185 8.919 0 21.944-.922 22.041-.941Z"/>
    <path fill="#ed9da0" d="M1178.102 381.511h22.994l1.581 24.872h-26.065Z"/>
    <path fill="#2f2e41" d="m1115.448 537.44-4.166 38.422 168.415-2.4-73.446-119.678-59.968-2.154Z"/>
    <path d="m1115.448 537.44-4.166 38.422 168.415-2.4-73.446-119.678-59.968-2.154Z" opacity=".28"/>
    <path fill="#2f2e41" d="m1146.353 533.684-6.453 38.159v34.108l52.033 16.984s-6.091 132.484 1.83 161.292l22.7 1.032.185-14.335 9.623-107.156 5.668-78.673-9.19-59.648Z"/>
    <path fill="#2f2e41" d="m1186.666 566.53-46.766 39.42s-2.737 71.122 4.214 79.463c5.97 7.164 83.613 68.955 83.613 68.955s13.8 12.658 21.533 12.859 16.728-16.018 16.728-16.018l-17.91-13.607s-46.4-43.31-60.174-60.53c-5.56-6.951-5.56-7.646-5.56-7.646l1.9-28.9 19.115-53.647Zm-46.705-166.19-18.576-1.717-16.85 2.808-35.679.011-3.04 25.86 32.56 7.286 7.935-3.889 33.075 12.6Z"/>
    <path fill="#f1f1f1" d="M1162.148 400.255s39.424-3.694 48.389 3.35 28.176 146.643 28.176 146.643l-76.565 4.321h-14.785s6.558-36.232 9.989-72.45 4.796-81.864 4.796-81.864"/>
    <path fill="#2f2e41" d="m1174.182 399.385-43.488.954-40.545 183.207 32.018 7.045Zm28.893 1.015 36.279 8.158-1.946 75.274 42.289 90-49.714 5.237s-27.366-50.566-34.093-95.232 7.185-83.437 7.185-83.437"/>
    <path fill="#ed9da0" d="M1261.585 582.969a10.944 10.944 0 0 0-.415-16.777l6.892-24.041-13.589-7.751-9.255 34.088a11 11 0 0 0 16.367 14.482Z"/>
    <path fill="#2f2e41" d="m1219.502 410.649 20.27-1.758s18.2 19.032 22.337 33.768 8.622 60.847 8.622 60.847l-1.87 67.449-23.693-16.09-1.589-58.015Z"/>
    <circle cx="28.733" cy="28.733" r="28.733" fill="#ed9da0" transform="rotate(-61.337 890.877 -782.768)"/>
    <path fill="#fff" d="M866.753 472.428H503.995V245.5h362.758Z"/>
    <path fill="#3f3d56" d="M866.753 472.428H503.995V245.5h362.758Zm-361.1-1.656h359.442V247.156H505.656Z"/>
    <path fill="#fff" d="M822.444 786.731H615.393V559.804h207.051Z"/>
    <path fill="#3f3d56" d="M822.444 786.731H615.393V559.804h207.051Zm-205.394-1.656h203.738V561.46H617.05Z"/>
    <path fill="#3f3d56" d="M751.219 765.298h43.067v1.746h-43.067zm0 5.238h43.067v1.746h-43.067zm0 5.238h43.067v1.746h-43.067z"/>
    <path fill="#f1f1f1" d="M718.922 600.385v18.221a54.661 54.661 0 0 1 38.651 93.313l12.884 12.884a72.882 72.882 0 0 0-51.535-124.418"/>
    <path fill="#2f2e41" d="m770.454 724.803-12.884-12.884a54.65 54.65 0 0 1-71.722 4.863l-11.029 14.51a72.88 72.88 0 0 0 95.634-6.49Z"/>
    <path fill="#6200d1" d="M664.257 673.267a54.66 54.66 0 0 1 54.661-54.661v-18.221a72.881 72.881 0 0 0-44.1 130.907l11.028-14.511a54.57 54.57 0 0 1-21.591-43.514Z"/>
    <path fill="#fff" d="M1128.879 645.937H921.828V419.009h207.051Z"/>
    <path fill="#3f3d56" d="M1128.879 645.937H921.828V419.009h207.051Zm-205.394-1.657h203.738V420.665H923.485Z"/>
    <path fill="#2f2e41" d="M951.644 557.733h37.269v59.631h-37.269z"/>
    <path fill="#f1f1f1" d="M1005.477 517.151h37.269v100.213h-37.269z"/>
    <path fill="#6200d1" d="M1059.31 469.943h37.269v147.42h-37.269z"/>
    <path fill="#3f3d56" d="M1109.003 619.02h-167.3v-173.1h1.656v171.443h165.644Z"/>
    <circle cx="11.407" cy="11.407" r="11.407" fill="#ed9da0" transform="translate(1057.261 402.236)"/>
    <path fill="#cbcbcb" d="M1303.045 816.788h-177.754a.951.951 0 0 1 0-1.9h177.754a.951.951 0 0 1 0 1.9"/>
    <path fill="#3f3d56" d="M816.376 424.968h-262a.82.82 0 0 1-.82-.82V298.573a.82.82 0 1 1 1.64 0v124.755h261.18a.82.82 0 1 1 0 1.64"/>
    <path fill="#6200d1" d="M610.355 415.95h-23.83a2.437 2.437 0 0 1-2.434-2.434v-32.85a2.437 2.437 0 0 1 2.434-2.434h23.83a2.437 2.437 0 0 1 2.434 2.434v32.849a2.437 2.437 0 0 1-2.434 2.434Zm43.457-.001h-23.83a2.437 2.437 0 0 1-2.434-2.434v-64.007a2.437 2.437 0 0 1 2.434-2.434h23.83a2.437 2.437 0 0 1 2.434 2.434v64.011a2.437 2.437 0 0 1-2.434 2.434Zm43.456.001h-23.83a2.437 2.437 0 0 1-2.434-2.434v-32.85a2.437 2.437 0 0 1 2.434-2.434h23.83a2.437 2.437 0 0 1 2.434 2.434v32.849a2.437 2.437 0 0 1-2.434 2.434Zm43.456-.001h-23.83a2.383 2.383 0 0 1-2.434-2.324V337.1a2.383 2.383 0 0 1 2.434-2.324h23.83a2.383 2.383 0 0 1 2.434 2.324v76.526a2.384 2.384 0 0 1-2.434 2.324Zm43.456.001h-23.83a2.437 2.437 0 0 1-2.434-2.434v-98.444a2.437 2.437 0 0 1 2.434-2.434h23.83a2.437 2.437 0 0 1 2.434 2.434v98.444a2.437 2.437 0 0 1-2.434 2.434"/>
    <circle cx="4.92" cy="4.92" r="4.92" fill="#3f3d56" transform="translate(593.521 358.554)"/>
    <circle cx="4.92" cy="4.92" r="4.92" fill="#3f3d56" transform="translate(636.977 326.576)"/>
    <circle cx="4.92" cy="4.92" r="4.92" fill="#3f3d56" transform="translate(680.434 358.554)"/>
    <circle cx="4.92" cy="4.92" r="4.92" fill="#3f3d56" transform="translate(723.89 310.998)"/>
    <circle cx="4.92" cy="4.92" r="4.92" fill="#3f3d56" transform="translate(767.346 292.959)"/>
    <path fill="#3f3d56" d="m685.457 364.576-43.56-32.627-42.965 32.181-.983-1.313 43.948-32.918 43.352 32.472 43.081-47.144.173-.07 43.456-17.51.613 1.522-43.283 17.439Z"/>
    <path fill="#2f2e41" d="M1163.312 335.266a8.77 8.77 0 0 1 8.31-7.007c3.214-.053 6.822-2.158 9.669-.668 5.9 3.041 22.471-1.116 24.375-.962s3.428 1.4 4.744 2.673a31.75 31.75 0 0 1 7.2 10.891 9.3 9.3 0 0 0 1.831 3.388 12.3 12.3 0 0 0 2.285 1.517 12.56 12.56 0 0 1 5.4 8.132 17.9 17.9 0 0 1-.982 9.856 15 15 0 0 1-3.568 5.72c-1.216 1.143-2.673 2-3.949 3.074a15.77 15.77 0 0 0-5.346 14.62c-3.555.822-6.963-2.365-8.018-5.853s-.448-7.23-.394-10.871c0-1.617-.227-3.528-1.65-4.3-1.183-.668-2.673-.187-3.835.468a10.3 10.3 0 0 1-3.655 1.657c-2 .227-3.835-1.176-4.958-2.84s-1.764-3.595-2.833-5.292a24.3 24.3 0 0 0-5.513-5.626c-2.332-1.918-4.6-4.056-7.076-5.78-1.49-1.036-3.267-1.517-4.731-2.559-4.421-3.175-7.306-5.193-7.306-10.238"/>
  </g>
</svg>
