<svg xmlns="http://www.w3.org/2000/svg" width="420" height="206" aria-hidden="true" class="pug w-full h-auto" viewBox="0 0 420 206">
  <path fill="#333" d="M380.243 206.785c3.1-26.5-1.7-49.1-7.3-59.2-13.4-24.3 48.4-66.8-66.1-110.7s-123.4-9.7-123.4-9.7-48.8-24.2-110 66.2c-61.1 90.4-11.3 92.4-15.7 106.4-.5 1.4-1 3.9-1.4 7.1"/>
  <path d="m60.643 207.385-8.7-1.2c.4-3.1 1-5.9 1.6-7.8.4-1.1-.8-2.7-3.6-5.9-4.8-5.5-12.1-13.9-11.5-30 .7-17.9 10.9-41.4 31.4-71.6 14.2-21 29-37.6 43.9-49.5 12.1-9.6 24.4-16.1 36.5-19.3 14.7-3.9 25.7-2 31.2-.4 1.5-2.1 4.1-4.6 8.3-6.7 14.1-7.3 46.2-10.1 118.7 17.7 37.5 14.4 60.1 30 69.1 47.9 8.1 16.1 4 31.2.7 43.3-2.4 8.7-4.4 16.2-1.4 21.5 6.2 11.2 10.9 34.7 7.8 61.8l-8.7-1c2.9-25.1-1.4-46.9-6.7-56.6-4.7-8.5-2.1-18 .7-28 3.2-11.8 6.5-23.9-.1-37-8-15.9-29.1-30.2-64.4-43.7-71.9-27.6-100.3-23.4-110.8-18.5-5.3 2.5-6.6 5.3-6.8 5.9l-1 5.6-5.1-2.9c-.1 0-11.5-5.3-29.8-.3-17.2 4.8-44.1 19.9-74.6 65-43.6 64.5-29.2 81-20.5 90.9 3.6 4.1 7.3 8.3 5.4 14.3-.7 1.5-1.2 3.9-1.6 6.5"/>
  <path fill="#555" d="M327.143 179.685c-.9-10.5 21.2-45-24-65.6-45.1-20.5-65.7 3.8-71.9 17.1s-16.7 1.8-27.9 2.8-23.4 15-34.6 1.1c-11.2-14-35.8-26.5-60.1-7.3s-36.2 52.8-21.5 75.8c.7 1.1 1.3 2.1 1.8 3.1h42.9c.5-.3 1.2-.4 1.9-.4 3 0 5.9.2 8.9.4h199.6c.7-19-14.4-18.3-15.1-27"/>
  <path d="M346.943 201.085c-3.8-7.2-15.6-19.4-33.5-14.2-16 4.7-29.6.4-48.6-15.3-21.6-17.9-42.1-25.8-62.7-24.3-22.6 1.7-36.5 21.8-47.7 38-3 4.3-5.8 8.4-8.5 11.8-3.1 3.9-5.7 6.9-8.1 9.4 4.6.2 9.2.7 13.8 1 .9-1.1 1.9-2.3 2.9-3.5 3-3.7 5.9-7.9 9-12.4 10.4-15 22.1-32 39.4-33.3 17.6-1.3 35.5 5.8 54.9 21.8 16.1 13.3 29.9 19.6 44 19.6 4.8 0 9.7-.7 14.7-2.2 5.8-1.7 10.9-.8 15.4 2.8 3.4 2.7 5.2 6 5.2 6 1.4 2.7 4.7 3.7 7.4 2.3 2.8-1.5 3.8-4.8 2.4-7.5"/>
  <path d="M170.743 179.285c3.1 15.9 20.9 29.8 38.9 26.3 17.9-3.5 29.2-23.1 26.1-39s-18.6-18.1-36.6-14.5c-17.9 3.4-31.5 11.3-28.4 27.2"/>
  <g class="pug__eye pug__eye--blink">
    <circle cx="293.243" cy="144.585" r="31.5"/>
    <circle cx="293.243" cy="144.585" r="3" fill="#fff"/>
    <path fill="#fff" d="M295.143 127.185c-.6 3.9 2.1 7.5 6 8.1s7.5-2.1 8.1-6-2.1-7.5-6-8.1-7.5 2.1-8.1 6"/>
  </g>
  <g class="pug__eye">
    <circle cx="115.443" cy="166.085" r="31.5"/>
    <circle cx="115.443" cy="166.085" r="3" fill="#fff"/>
    <path fill="#fff" d="M117.243 148.685c-.6 3.9 2.1 7.5 6 8.1s7.5-2.1 8.1-6-2.1-7.5-6-8.1-7.5 2.1-8.1 6"/>
  </g>
  <path d="M222.443 116.985c2 0 4-1.1 4.9-3 .9-1.7 21.7-41.5 75-19.2 2.8 1.2 6-.2 7.2-3s-.2-6-3-7.2c-32.7-13.7-55.2-6.4-68.3 2.1-14.2 9.2-20.6 21.8-20.8 22.3-1.3 2.7-.2 6 2.5 7.4.8.4 1.6.6 2.5.6m-51.8 8.6c.9 0 1.9-.2 2.7-.7 2.6-1.5 3.5-4.9 2-7.5-.2-.4-5.7-9.8-16.2-16.7-9.9-6.5-26.3-11.9-47.8-1.1-2.7 1.4-3.8 4.7-2.4 7.4s4.7 3.8 7.4 2.4c32-16 48.9 12.2 49.6 13.4 1 1.9 2.8 2.8 4.7 2.8"/>
  <path fill="#333" d="M286.243 35.585c25.8 12.1 66.9 76.2 70.3 94.8s9.8 48.6 30 37.2 9-39.8 19.8-57.2 5.2-46-13.2-63.6c-18.5-17.6-51.2-14.9-51.2-14.9-96.5-46.2-101.1-8.5-101.1-8.5s29.1 4.6 45.4 12.2"/>
  <path d="M378.143 173.885c3.1 0 6.8-.8 11-3.2 14.4-8.2 15.6-23.2 16.7-36.4.7-8.5 1.3-16.6 5.1-22.7 6-9.7 7.8-22.4 5.1-35.7-2.7-13.2-9.5-25.5-19.2-34.8-17.9-17.1-46.9-16.8-54-16.5-25-11.9-46.6-19.2-64.1-21.8-14.2-2.1-25.9-1.1-34.6 2.9-11.3 5.2-13.8 13.7-14.1 14.6l10.6 2.8v.1c.1-.2 1.6-4.8 8.7-7.8 9.6-4.2 34.1-7.1 90.1 19.7.9.4 1.9.6 2.8.5.3 0 30.6-2.3 47 13.4 8.1 7.7 13.8 18 16 29 2.1 10.5.8 20.6-3.6 27.7-5.1 8.3-5.9 18.1-6.7 27.6-1 12.1-1.8 22.5-11.1 27.7-4.9 2.7-7.2 1.6-8 1.3-8.2-3.8-12.3-26.2-13.8-34.7-2-10.9-13.5-34.4-26.7-54.4-12.3-18.6-30.5-41.5-48-44.7-3-.5-5.8 1.4-6.4 4.4-.5 3 1.4 5.8 4.4 6.4 10.5 1.9 25.3 16.5 40.8 40 13.6 20.6 23.6 42.2 25.1 50.4 3.2 17.6 7.7 36.9 20 42.7 1.7.8 4 1.5 6.9 1.5"/>
  <path fill="#333" d="M106.943 63.085c-13.3 14.2-23.6 55.6-34 73.6s-10.9 12.9-6.7 50.6c4.2 37.6-26.7 12.3-27.3-.6s-6.5-5.1-18.4-22.2c-11.9-17.2-15.2-15.6-8.3-41.2s59.1-52.5 59.1-52.5c28.9-56.4 71.2-36.7 71.2-36.7s-17.9 10.2-35.6 29"/>
  <path d="M144.943 28.985c-.5-.2-12.3-5.6-27.9-3.2-14 2.1-33.8 10.9-49.7 40.9-3.9 2.1-14.7 8.1-26.1 16.2-19.5 13.9-31.1 27-34.3 38.9-2.9 10.8-4.3 17.8-3.5 23.7.8 6 3.8 10 8 15.7 1.4 1.8 2.9 3.9 4.6 6.4 6.3 9.1 11.3 12.1 14.7 14 1 .6 1.9 1.1 2.1 1.4.1.2.5 1 .7 3.9.4 8.6 9 18.8 16.9 23.1h14.7c.4 0 .8.1 1.1.1 5.1-3.8 6.9-11.5 5.5-23.5-1.8-16.2-2.7-24.3-2.3-29.5.3-4.3 1.6-6.4 5-12.1 1-1.6 2.1-3.5 3.3-5.6 4.1-7 7.3-17.7 10.8-28.9 5.2-17 11.7-38.2 20.8-42.4 2.8-1.3 3.9-4.5 2.7-7.3-1.3-2.8-4.5-3.9-7.3-2.7-13.5 6.3-20.2 28.1-26.7 49.2-3.3 10.6-6.3 20.7-9.8 26.7-1.2 2.1-2.3 3.9-3.2 5.5-8.1 13.4-8 14.8-4.2 48.4 1.1 9.6-.6 13.1-1.3 13.6-.2.2-1.3.2-3.3-.8-5.9-2.9-11.6-10.5-11.8-14.3-.4-9.1-3.6-11.7-8.2-14.3-2.8-1.6-6.3-3.7-11.2-10.8-1.8-2.6-3.4-4.8-4.8-6.7-7.3-9.9-7.9-10.7-2.7-30 5.1-19.1 42.4-41.9 56.3-49 1-.5 1.9-1.4 2.4-2.4 11.1-21.7 25.4-34 42.4-36.6 12.2-1.8 21.5 2.3 21.6 2.3 2.8 1.3 6 .1 7.3-2.7 1.3-2.7.1-6-2.6-7.2m194.5 7.8s.1 0 .2.1c.1 0 .1 0 .2.1.1 0 .2.1.3.1.5.2 1.2.5 2.2 1 1.9.9 4.6 2.2 7.8 4.1 1.6.9 3.3 2 5 3.2s3.6 2.5 5.4 3.9c.9.7 1.8 1.5 2.7 2.2.9.8 1.8 1.5 2.7 2.4.9.8 1.8 1.6 2.7 2.5l1.3 1.3 1.3 1.3c1.7 1.8 3.3 3.7 4.8 5.6.7 1 1.5 2 2.2 2.9.7 1 1.3 2 2 3l1.8 3c.5 1 1.1 2 1.6 2.9.5 1 .9 1.9 1.4 2.8.4.9.8 1.8 1.1 2.7.4.9.7 1.7 1 2.5s.6 1.6.8 2.3c.4 1.5.8 2.8 1.1 3.9.5 2.2.8 3.4.8 3.4s-.1-1.3-.3-3.5c-.1-1.1-.4-2.5-.6-4-.1-.8-.3-1.6-.5-2.4l-.6-2.7c-.3-.9-.5-1.9-.8-2.9s-.7-2-1-3.1c-.4-1-.8-2.1-1.2-3.2s-.9-2.2-1.4-3.3-1.1-2.2-1.6-3.4c-.6-1.1-1.2-2.2-1.9-3.4-1.3-2.2-2.7-4.4-4.3-6.6l-1.2-1.6-1.2-1.6c-.8-1.1-1.6-2-2.5-3-.8-1-1.7-2-2.5-2.9-.9-.9-1.7-1.9-2.6-2.7-1.7-1.8-3.5-3.4-5.2-4.9s-3.4-2.9-4.9-4.1c-3.1-2.5-5.9-4.4-7.9-5.7q-1.5-.9-2.4-1.5c-.1-.1-.3-.2-.4-.2-.1-.1-.2-.1-.3-.2l-.2-.1c-2.7-1.5-6-.5-7.5 2.1-1.5 2.7-.5 6 2.1 7.5 0 0 .3.2.5.2"/>
  <path d="m67.543 66.785-.2.2c-.1.1-.3.3-.5.6-.4.5-1 1.2-1.8 2.2-1.5 1.9-3.6 4.6-5.8 7.9-1.1 1.7-2.4 3.5-3.6 5.4s-2.5 4-3.7 6.2-2.5 4.5-3.6 6.8c-1.2 2.3-2.3 4.8-3.4 7.2-.5 1.2-1 2.5-1.5 3.7s-.9 2.5-1.4 3.7c-.4 1.2-.9 2.5-1.3 3.7s-.8 2.4-1.1 3.6-.7 2.4-1 3.5c-.3 1.2-.6 2.3-.9 3.4-.2 1.1-.5 2.2-.7 3.2s-.4 2.1-.6 3c-.2 1-.3 1.9-.5 2.8-.1.9-.3 1.7-.4 2.5-.2 1.6-.3 3-.4 4.1-.2 2.3-.3 3.6-.3 3.6s.3-1.3.7-3.5c.2-1.1.6-2.5 1-4 .2-.8.4-1.6.7-2.4.2-.9.5-1.8.8-2.7s.6-1.9 1-2.9.7-2 1.1-3 .8-2.1 1.3-3.2c.4-1.1.9-2.2 1.4-3.3s1-2.2 1.6-3.3c.5-1.1 1.1-2.2 1.7-3.4.6-1.1 1.2-2.2 1.8-3.4.6-1.1 1.3-2.2 1.9-3.3 1.3-2.2 2.7-4.4 4.1-6.4 1.4-2.1 2.9-4.1 4.3-6 1.5-1.9 2.9-3.7 4.3-5.4s2.7-3.2 4-4.6c2.5-2.8 4.8-5.1 6.3-6.6.8-.8 1.4-1.3 1.8-1.7.2-.2.3-.3.5-.4.1-.1.2-.1.2-.1 2.3-2 2.6-5.5.6-7.8s-5.5-2.6-7.8-.6c-.2.3-.4.5-.6.7m121.9-18.2h.3c3-.1 5.4-2.7 5.2-5.7-.1-1.4-.8-13.7-7.9-19.9-2.3-2-5.7-1.8-7.7.5s-1.8 5.7.5 7.7c2.8 2.5 4 9.3 4.2 12.2.1 2.9 2.5 5.2 5.4 5.2"/>
</svg>
